<svg width="1em" height="1em" viewBox="0 0 651 494" fill="none" xmlns="http://www.w3.org/2000/svg">
<path d="M349.77 207.902C348.516 231.369 346.962 259.907 346.962 259.907C349.286 267.437 350.257 275.318 349.83 283.186C365.196 285.312 387.963 306.193 397.149 318.118C411.311 336.497 423.612 360.989 432.149 392.054C440.685 423.118 449.503 437.297 453.635 437.135C457.767 436.973 464.221 430.972 467.635 416.383C471.05 401.794 470.853 388.306 471.485 375.629C471.733 370.661 470.802 362.21 474.55 358.325C475.701 357.186 477.172 356.424 478.767 356.14L477.999 355.995C477.999 355.995 474.797 332.212 481.003 327.133C481.428 326.789 481.883 326.484 482.361 326.219L481.917 323.573V312.655C466.551 303.905 459.269 282.973 467.917 267.411V260.146C463.685 261.317 459.382 262.215 455.035 262.835C443.528 264.432 431.457 263.962 420.581 259.019C410.423 254.41 401.681 247.171 393.205 239.624C384.301 231.702 375.542 223.516 365.751 216.883C360.677 213.461 355.332 210.457 349.77 207.902Z" fill="#EDF2F5"/>
<path d="M166.089 268.956C165.747 269.064 165.406 269.167 165.064 269.263C166.558 277.305 167.514 284.919 167.514 284.919C178.689 284.399 185.441 298.151 174.771 314.797C185.868 316.556 191.485 330.624 194.243 344.624C200.917 329.035 210.953 315.113 223.634 303.854C230.156 298.108 237.992 294.668 245.778 291.126C255.057 286.908 271.968 283.187 271.968 283.187C279.429 273.651 280.906 260.701 282.647 248.502C283.757 240.76 283.885 232.915 285.063 225.163C285.277 223.806 285.482 222.013 285.669 220.118L285.524 220.033C285.275 220.236 284.985 220.384 284.674 220.467C284.363 220.55 284.038 220.567 283.72 220.515C283.402 220.463 283.099 220.345 282.83 220.168C282.561 219.99 282.333 219.758 282.161 219.486C280.346 215.986 278.915 212.3 277.892 208.491H278.029C273.658 207.689 268.989 205.691 267.64 200.902C245.727 206.818 227.382 219.854 210.172 235.458C200.875 243.893 191.758 252.626 181.736 260.035C176.871 263.689 171.808 267.112 166.089 268.956Z" fill="#EDF2F5"/>
<path d="M643.557 283.4C640.689 270.876 637.104 257.73 629.771 247.324C622.438 236.918 612.433 230.14 601.131 226.17C578.005 218.035 553.283 224.173 531.19 233.23C532.724 234.079 534.122 235.152 535.339 236.414C536.997 238.05 538.243 240.056 538.975 242.267C539.706 244.478 539.903 246.832 539.548 249.134L540.103 249.304C547.598 251.379 549.425 257.32 548.323 263.817L548.947 264.013C555.776 265.191 556.681 273.173 555.264 280.232L557.048 280.984C561.786 285.38 561.034 295.914 556.732 300.481C554.935 302.246 552.54 303.27 550.022 303.35L550.415 304.562C548.528 313.645 542.075 317.631 535.962 318.417L535.168 330.06C536.397 330.679 537.559 331.423 538.634 332.28C542.954 335.806 541.571 343.753 541.571 349.481V368.048L539.864 367.715C555.844 378.249 551.815 395.749 552.523 408.384C553.298 420.043 553.167 431.745 552.131 443.384L586.977 442.965L607.61 442.718C614.064 442.641 620.987 443.35 627.338 442.06C634.466 440.609 637.368 434.787 639.451 427.864C641.347 421.53 643 415.113 644.411 408.614C647.368 394.832 649.311 380.851 650.225 366.785C652.107 338.813 649.86 310.717 643.557 283.4Z" fill="#EDF2F5"/>
<path d="M98.9061 423.101C97.2414 411.235 91.4366 400.138 90.7451 387.947C90.3669 378.801 90.6265 369.639 91.5219 360.528C92.6658 347.1 94.2878 335.772 101.817 324.077C103.433 321.596 105.323 319.306 107.451 317.247C107.451 317.247 96.3536 279.686 100.579 277.296C99.7968 277.075 99.0496 276.745 98.3597 276.314C91.7809 279.109 85.4908 282.54 79.5792 286.558C59.6975 300.029 44.1353 320.141 33.8829 342.994C28.7142 354.633 24.7358 366.766 22.0085 379.206C19.4475 390.85 16.8865 403.723 17.7402 415.794C18.5939 428.599 24.6719 439.534 36.4695 443.051C42.2573 444.758 48.5317 444.443 54.4646 444.485L75.2768 444.656L96.0805 444.827C97.8048 437.127 99.8536 429.614 98.9061 423.101Z" fill="#EDF2F5"/>
<path d="M349.831 283.187C365.196 285.312 387.964 306.193 397.149 318.11C411.311 336.497 423.612 360.989 432.149 392.054C440.685 423.118 449.504 437.297 453.635 437.135C457.767 436.973 464.212 430.972 467.635 416.383C471.059 401.794 470.854 388.306 471.486 375.629C471.733 370.661 470.803 362.21 474.55 358.326C478.665 354.057 487.295 356.319 492.596 357.216C507.416 359.734 525.633 359.162 538.626 366.948C556.04 377.371 551.772 395.434 552.506 408.384C554.214 438.45 553.223 445.945 551.166 453.09C549.57 458.605 547.342 477.513 535.006 478.06C522.671 478.606 536.235 460.184 542.356 471.785C545.822 478.35 538.378 489.499 534.059 492.871" stroke="#555555" stroke-width="2" stroke-linecap="round" stroke-linejoin="round"/>
<path d="M95.9442 471.017C89.3283 455.651 100.87 437.067 98.9064 423.101C97.2417 411.235 91.4368 400.137 90.7454 387.947C90.3672 378.8 90.6268 369.638 91.5222 360.528C92.6661 347.099 94.2881 335.771 101.817 324.076C108.92 312.979 121.153 307.302 131.875 300.131C141.845 293.464 156.332 285.431 167.515 284.919C178.698 284.407 185.442 298.151 174.771 314.797C195.686 318.109 197.051 364.89 196.719 373.008C196.411 380.554 195.865 401.076 187.286 404.593C180.038 407.564 180.158 401.734 180.781 395.843C181.933 384.925 185.826 373.401 188.284 362.713C193.406 340.356 206.331 319.117 223.651 303.87C230.173 298.125 238.01 294.685 245.795 291.142C255.075 286.925 271.986 283.203 271.986 283.203" stroke="#555555" stroke-width="2" stroke-linecap="round" stroke-linejoin="round"/>
<path d="M478.025 355.995C478.025 355.995 474.823 332.212 481.03 327.133C487.236 322.053 501.62 324.734 514.262 325.511C526.905 326.287 534.341 328.754 538.669 332.28C542.997 335.806 541.605 343.753 541.605 349.481V368.048" stroke="#555555" stroke-width="2" stroke-linecap="round" stroke-linejoin="round"/>
<path d="M481.917 312.655C466.261 303.725 458.954 282.085 468.472 266.446C476.035 254.025 504.198 240.025 513.955 257.747C521.314 271.133 499.972 272.695 492.289 270.074C498.316 271.21 504.24 281.249 504.24 290.656" stroke="#555555" stroke-width="2" stroke-linecap="round" stroke-linejoin="round"/>
<path d="M486.698 241.57C494.593 238.152 502.682 235.201 510.925 232.735C519.632 230.328 528.647 229.525 535.339 236.414C546.198 247.597 534.486 263.424 525.369 272.695C517.515 280.736 508.372 280.378 506.221 272.763" stroke="#555555" stroke-width="2" stroke-linecap="round" stroke-linejoin="round"/>
<path d="M467.917 265.507C467.917 238.66 467.849 212.503 475.079 186.859C476.505 181.823 479.279 164.57 491.299 170.64C498.034 174.055 494.039 194.67 493.629 201.372C493.074 210.455 492.929 229.116 492.929 237.891" stroke="#555555" stroke-width="2" stroke-linecap="round" stroke-linejoin="round"/>
<path d="M515.799 250.039C514.277 251.515 513.029 253.249 512.111 255.161" stroke="#555555" stroke-width="2" stroke-linecap="round" stroke-linejoin="round"/>
<path d="M540.102 249.305C554.188 253.206 548.255 270.749 540.495 280.105C532.735 289.461 525.078 292.244 519.854 289.828C515.585 287.856 512.282 282.751 516.704 278.15" stroke="#555555" stroke-width="2" stroke-linecap="round" stroke-linejoin="round"/>
<path d="M548.946 264.073C559.378 265.883 555.989 283.571 551.61 289.452C548.562 293.542 543.073 298.655 537.098 297.212C532.727 296.162 530.405 292.09 532.693 287.643" stroke="#555555" stroke-width="2" stroke-linecap="round" stroke-linejoin="round"/>
<path d="M557.048 280.976C561.786 285.372 561.034 295.906 556.732 300.473C552.293 305.177 541.477 304.34 543.842 296.29" stroke="#555555" stroke-width="2" stroke-linecap="round" stroke-linejoin="round"/>
<path d="M550.415 304.554C548.187 315.267 539.616 318.904 532.735 318.545" stroke="#555555" stroke-width="2" stroke-linecap="round" stroke-linejoin="round"/>
<path d="M535.954 318.545L535.22 329.361" stroke="#555555" stroke-width="2" stroke-linecap="round" stroke-linejoin="round"/>
<path d="M107.417 317.247C107.417 317.247 96.3195 279.686 100.545 277.296C104.771 274.906 123.705 264.935 134.248 259.924C139.301 257.517 154.462 248.895 159.004 250.722C163.545 252.549 167.54 284.919 167.54 284.919" stroke="#555555" stroke-width="2" stroke-linecap="round" stroke-linejoin="round"/>
<path d="M158.551 248.571C162.606 236.688 157.339 215.662 165.637 206.664C176.282 195.123 196.112 183.086 189.377 175.779C180.883 166.551 170.127 177.23 162.393 181.336C153.924 185.835 145.746 190.556 136.109 196.275C95.8672 179.868 78.9733 188.951 56.172 193.885C47.5415 195.78 28.1464 202.61 42.4452 211.095C53.8757 217.873 72.3233 219.102 79.1525 230.891C83.3781 238.156 86.4001 247.905 88.4233 255.955C89.8147 261.495 92.6403 275.102 100.554 277.296" stroke="#555555" stroke-width="2" stroke-linecap="round" stroke-linejoin="round"/>
<path d="M40.7036 200.689C48.2585 198.555 67.3975 204.957 72.1012 207.937" stroke="#555555" stroke-width="2" stroke-linecap="round" stroke-linejoin="round"/>
<path d="M60.5854 193.321C68.8916 194.815 78.3672 199.297 84.8977 202.165" stroke="#555555" stroke-width="2" stroke-linecap="round" stroke-linejoin="round"/>
<path d="M82.6865 189.643C89.3792 191.657 96.1231 195.926 102.568 198.478" stroke="#555555" stroke-width="2" stroke-linecap="round" stroke-linejoin="round"/>
<path d="M570.057 89.6878C565.499 55.5841 546.701 32.1512 517.131 23.6999C500.86 19.056 485.007 18.6975 471.298 22.65C455.932 27.089 443.656 36.5817 434.778 50.8719C425.971 64.9432 421.131 81.1331 420.77 97.7292C420.445 115.041 425.311 131.338 434.838 144.843C444.851 159.048 459.594 167.337 476.309 168.199C480.295 168.404 484.316 168.549 488.354 168.549C501.159 168.549 514.066 167.089 525.462 161.506C541.059 153.823 551.729 144.612 559.037 132.405C565.627 121.341 572.004 104.311 570.057 89.6878Z" fill="#FBA85C"/>
<path d="M458.8 31.8779C458.8 31.8779 466.867 53.2194 470.008 62.0804C473.286 71.3426 484.222 96.4487 484.222 96.4487C484.222 96.4487 521.714 104.234 531.719 106.641C541.434 108.98 551.832 110.662 560.445 113.641" stroke="#555555" stroke-width="2" stroke-linecap="round" stroke-linejoin="round"/>
<path d="M484.581 95.2451C484.581 95.2451 546.326 63.3268 555.289 56.9414" stroke="#555555" stroke-width="2" stroke-linecap="round" stroke-linejoin="round"/>
<path d="M411.926 58.7764H404.559" stroke="#555555" stroke-width="2" stroke-linecap="round" stroke-linejoin="round"/>
<path d="M518.317 1.12891L526.709 1.46183" stroke="#555555" stroke-width="2" stroke-linecap="round" stroke-linejoin="round"/>
<path d="M584.074 82.4658L592.935 82.2354" stroke="#555555" stroke-width="2" stroke-linecap="round" stroke-linejoin="round"/>
<path d="M271.985 283.186C279.446 273.651 280.923 260.701 282.665 248.502C283.774 240.759 283.902 232.914 285.08 225.163C285.857 220.092 286.609 208.901 286.609 208.901C286.609 208.901 264.61 211.146 267.563 195.165C269.194 186.381 280.206 176.274 289.537 179.97C291.773 161.864 291.389 143.604 308.633 132.737C328.011 120.539 349.301 143.28 362.891 156.213C372.451 165.302 381.192 175.214 389.013 185.835C377.677 187.252 350.915 186.057 350.915 186.057C349.848 207.057 346.962 259.907 346.962 259.907C352.272 277.296 350.428 297.135 342.216 297.425C334.004 297.715 329.291 283.169 322.932 276.041C319.679 284.646 308.966 298.535 297.783 298.552C286.6 298.569 275.946 290.109 271.985 283.186Z" stroke="#555555" stroke-width="2" stroke-linecap="round" stroke-linejoin="round"/>
<path d="M282.298 254.461C295.956 269.221 327.917 267.206 344.171 258.883" stroke="#555555" stroke-width="2" stroke-linecap="round" stroke-linejoin="round"/>
<path d="M276.407 194.798C277.378 194.71 278.355 194.866 279.249 195.253C280.144 195.639 280.928 196.243 281.529 197.009" stroke="#555555" stroke-width="2" stroke-linecap="round" stroke-linejoin="round"/>
<path d="M313.473 193.714C315.582 197.504 319.944 198.358 323.785 196.659" stroke="#555555" stroke-width="2" stroke-linecap="round" stroke-linejoin="round"/>
<path d="M318.39 170.375V167.311" stroke="#555555" stroke-width="2" stroke-linecap="round" stroke-linejoin="round"/>
<path d="M334.61 168.284V164.596" stroke="#555555" stroke-width="2" stroke-linecap="round" stroke-linejoin="round"/>
<path d="M320.371 306.056C321.224 314.55 316.785 327.141 315.249 335.447C312.841 348.414 308.59 360.681 308.547 371.028C308.505 381.374 310.741 386.598 316.504 390.662C322.266 394.725 324.494 397.534 324.101 404.909C323.555 415.085 319.432 426.251 315.215 435.411C312.577 441.147 307.617 447.362 313.388 452.296C320.285 458.135 328.754 453.004 331.391 465.101C332.945 472.314 330.469 481.756 328.566 488.534" stroke="#555555" stroke-width="2" stroke-linecap="round" stroke-linejoin="round"/>
<path d="M352.272 356.729C363.216 356.729 372.674 355.722 383.2 357.267" stroke="#555555" stroke-width="2" stroke-linecap="round" stroke-linejoin="round"/>
<path d="M375.346 350.958L374.604 366.426" stroke="#555555" stroke-width="2" stroke-linecap="round" stroke-linejoin="round"/>
<path d="M366.503 349.481C366.503 356.311 367.911 364.489 365.769 370.823" stroke="#555555" stroke-width="2" stroke-linecap="round" stroke-linejoin="round"/>
<path d="M319.125 363.277L322.078 361.8" stroke="#555555" stroke-width="2" stroke-linecap="round" stroke-linejoin="round"/>
<path d="M333.056 412.584L335.634 411.943" stroke="#555555" stroke-width="2" stroke-linecap="round" stroke-linejoin="round"/>
<path d="M343.061 468.464L340.858 468.617" stroke="#555555" stroke-width="2" stroke-linecap="round" stroke-linejoin="round"/>
<path d="M277.927 208.491C278.949 212.299 280.38 215.986 282.195 219.486C282.377 219.773 282.621 220.016 282.908 220.197C283.196 220.378 283.52 220.493 283.857 220.534C284.194 220.575 284.536 220.54 284.858 220.433C285.181 220.326 285.475 220.148 285.721 219.913C286.233 214.791 286.626 208.901 286.626 208.901C283.72 209.139 280.797 209.001 277.927 208.491Z" fill="#555555"/>
<path d="M339.501 125.78L320.61 123.74C315.027 123.134 309.393 122.238 303.81 123.305C296.263 124.747 285.507 130.689 284.636 139.277C284.394 140.955 284.773 142.665 285.704 144.083C285.83 144.258 285.967 144.427 286.113 144.586C276.766 150.767 276.296 165.45 275.707 175.847C275.571 178.238 275.477 180.645 275.417 183.052C277.862 181.029 280.814 179.712 283.954 179.245C285.269 182.174 286.754 185.025 288.401 187.782C288.655 188.186 289.032 188.499 289.478 188.673C289.923 188.847 290.412 188.873 290.873 188.748C291.334 188.622 291.743 188.352 292.039 187.977C292.334 187.601 292.502 187.141 292.516 186.663C292.397 181.309 293.668 176.015 296.204 171.297C298.261 167.541 301.027 164.212 302.486 160.14C303.946 156.068 303.519 150.878 300.779 147.583C305.21 146.464 309.572 142.777 312.406 139.593C316.486 135 320.089 132.072 326.508 132.097C331.451 132.097 336.223 132.635 340.611 129.921C342.6 128.7 341.601 126.036 339.501 125.78Z" fill="#555555"/>
<path d="M481.917 323.573V312.654" stroke="#555555" stroke-width="2" stroke-linecap="round" stroke-linejoin="round"/>
<path d="M130.585 238.258C129.323 238.16 128.057 238.378 126.9 238.892C125.744 239.406 124.733 240.201 123.961 241.204" stroke="#555555" stroke-width="2" stroke-linecap="round" stroke-linejoin="round"/>
<path d="M177.135 68.3294C177.093 67.783 177.059 67.1855 177.016 66.5452C176.418 57.0781 175.428 41.2257 166.098 37.1879C152.012 31.0928 140.59 49.3013 137.423 55.0294C134.504 60.3135 132.096 66.5452 129.561 73.1525C123.321 89.372 116.867 106.095 102.585 108.554C91.778 110.415 88.1585 103.364 83.139 91.7025C79.3914 83.0037 75.5244 74.0062 66.228 71.6501C54.0207 68.5598 35.8719 74.3476 18.7817 119.455C18.6187 119.897 18.5603 120.37 18.611 120.838L26.7207 196.318C26.7987 197.052 27.1453 197.731 27.6937 198.224C28.2422 198.717 28.9538 198.99 29.6914 198.99C29.8719 198.99 30.052 198.973 30.2293 198.939L180.473 171.417C181.19 171.287 181.835 170.899 182.286 170.327C182.737 169.755 182.964 169.037 182.923 168.31C182.898 167.507 178.39 86.2989 177.135 68.3294Z" fill="#86B0C1"/>
<path d="M206.262 166.61C206.262 166.61 140.462 175.685 126.198 178.007C102.696 181.831 29.6829 196.01 29.6829 196.01C29.6829 196.01 16.878 76.4983 13.7707 48.8568C12.917 41.1141 11.4487 22.2227 11.4487 22.2227" stroke="#555555" stroke-width="2" stroke-linecap="round" stroke-linejoin="round"/>
<path d="M2.36572 32.791C5.25962 29.0861 11.4486 22.2227 11.4486 22.2227L22.8706 29.3166" stroke="#555555" stroke-width="2" stroke-linecap="round" stroke-linejoin="round"/>
<path d="M200.304 158.919C203.07 161.241 205.972 163.119 208.84 165.338C207.048 168.873 204.572 172.39 203.462 176.137" stroke="#555555" stroke-width="2" stroke-linecap="round" stroke-linejoin="round"/>
<path d="M6.07076 66.8691H1.28174" stroke="#555555" stroke-width="2" stroke-linecap="round" stroke-linejoin="round"/>
<path d="M15.0171 145.765H10.228" stroke="#555555" stroke-width="2" stroke-linecap="round" stroke-linejoin="round"/>
<path d="M10.8513 102.885H6.0708" stroke="#555555" stroke-width="2" stroke-linecap="round" stroke-linejoin="round"/>
<path d="M18.2612 181.105H13.4722" stroke="#555555" stroke-width="2" stroke-linecap="round" stroke-linejoin="round"/>
</svg>
